<mxfile host="app.diagrams.net" modified="2020-09-13T18:22:07.923Z" agent="5.0 (Windows NT 10.0; Win64; x64) AppleWebKit/537.36 (KHTML, like Gecko) Chrome/85.0.4183.102 Safari/537.36" etag="zeNKycFVCOGx1FZsNnbl" version="13.6.6" type="github">
  <diagram id="jQKXH2-iV5B42ja8aQHk" name="Page-1">
    <mxGraphModel dx="1221" dy="654" grid="1" gridSize="10" guides="1" tooltips="1" connect="1" arrows="1" fold="1" page="1" pageScale="1" pageWidth="1100" pageHeight="1700" math="0" shadow="0">
      <root>
        <mxCell id="0" />
        <mxCell id="1" parent="0" />
        <mxCell id="wHe4uk9Z3ZLrEEIRu-n8-8" value="" style="edgeStyle=orthogonalEdgeStyle;rounded=0;orthogonalLoop=1;jettySize=auto;html=1;fillColor=#1ba1e2;strokeColor=#006EAF;strokeWidth=10;" edge="1" parent="1" source="wHe4uk9Z3ZLrEEIRu-n8-1" target="wHe4uk9Z3ZLrEEIRu-n8-4">
          <mxGeometry relative="1" as="geometry" />
        </mxCell>
        <mxCell id="wHe4uk9Z3ZLrEEIRu-n8-1" value="&lt;font style=&quot;font-size: 36px&quot;&gt;Main&lt;/font&gt;" style="rounded=1;whiteSpace=wrap;html=1;" vertex="1" parent="1">
          <mxGeometry x="410" y="40" width="280" height="80" as="geometry" />
        </mxCell>
        <mxCell id="wHe4uk9Z3ZLrEEIRu-n8-9" value="" style="edgeStyle=orthogonalEdgeStyle;rounded=0;orthogonalLoop=1;jettySize=auto;html=1;strokeWidth=10;fillColor=#1ba1e2;strokeColor=#006EAF;" edge="1" parent="1" source="wHe4uk9Z3ZLrEEIRu-n8-4" target="wHe4uk9Z3ZLrEEIRu-n8-5">
          <mxGeometry relative="1" as="geometry" />
        </mxCell>
        <mxCell id="wHe4uk9Z3ZLrEEIRu-n8-10" value="" style="edgeStyle=orthogonalEdgeStyle;rounded=0;orthogonalLoop=1;jettySize=auto;html=1;strokeWidth=10;fillColor=#1ba1e2;strokeColor=#006EAF;" edge="1" parent="1" source="wHe4uk9Z3ZLrEEIRu-n8-4" target="wHe4uk9Z3ZLrEEIRu-n8-6">
          <mxGeometry relative="1" as="geometry" />
        </mxCell>
        <mxCell id="wHe4uk9Z3ZLrEEIRu-n8-4" value="&lt;font style=&quot;font-size: 36px&quot;&gt;MinistryMansion&lt;/font&gt;" style="rounded=1;whiteSpace=wrap;html=1;" vertex="1" parent="1">
          <mxGeometry x="410" y="240" width="280" height="80" as="geometry" />
        </mxCell>
        <mxCell id="wHe4uk9Z3ZLrEEIRu-n8-5" value="&lt;font style=&quot;font-size: 36px&quot;&gt;civilMeasurments&lt;/font&gt;" style="rounded=1;whiteSpace=wrap;html=1;" vertex="1" parent="1">
          <mxGeometry x="50" y="240" width="280" height="80" as="geometry" />
        </mxCell>
        <mxCell id="wHe4uk9Z3ZLrEEIRu-n8-6" value="&lt;span style=&quot;font-size: 36px&quot;&gt;architecturalDesign&lt;/span&gt;" style="rounded=1;whiteSpace=wrap;html=1;" vertex="1" parent="1">
          <mxGeometry x="770" y="240" width="310" height="80" as="geometry" />
        </mxCell>
        <mxCell id="wHe4uk9Z3ZLrEEIRu-n8-7" value="&lt;span style=&quot;font-size: 36px&quot;&gt;Villa&lt;/span&gt;" style="rounded=1;whiteSpace=wrap;html=1;" vertex="1" parent="1">
          <mxGeometry x="50" y="1120" width="280" height="80" as="geometry" />
        </mxCell>
        <mxCell id="wHe4uk9Z3ZLrEEIRu-n8-23" style="edgeStyle=orthogonalEdgeStyle;rounded=0;orthogonalLoop=1;jettySize=auto;html=1;strokeWidth=10;entryX=0.5;entryY=0;entryDx=0;entryDy=0;fillColor=#d80073;strokeColor=#A50040;" edge="1" parent="1" source="wHe4uk9Z3ZLrEEIRu-n8-11" target="wHe4uk9Z3ZLrEEIRu-n8-7">
          <mxGeometry relative="1" as="geometry">
            <mxPoint x="300" y="1020" as="targetPoint" />
            <Array as="points">
              <mxPoint x="550" y="790" />
              <mxPoint x="270" y="790" />
              <mxPoint x="270" y="1020" />
              <mxPoint x="190" y="1020" />
            </Array>
          </mxGeometry>
        </mxCell>
        <mxCell id="wHe4uk9Z3ZLrEEIRu-n8-11" value="&lt;ul&gt;&lt;li&gt;&lt;font style=&quot;font-size: 36px&quot;&gt;name&lt;/font&gt;&lt;/li&gt;&lt;li&gt;&lt;font style=&quot;font-size: 36px&quot;&gt;address&lt;/font&gt;&lt;/li&gt;&lt;/ul&gt;" style="whiteSpace=wrap;html=1;aspect=fixed;align=left;" vertex="1" parent="1">
          <mxGeometry x="435" y="320" width="230" height="230" as="geometry" />
        </mxCell>
        <mxCell id="wHe4uk9Z3ZLrEEIRu-n8-12" value="&lt;ul&gt;&lt;li&gt;&lt;font style=&quot;font-size: 36px&quot;&gt;courtYardSize&lt;/font&gt;&lt;/li&gt;&lt;/ul&gt;" style="whiteSpace=wrap;html=1;aspect=fixed;align=left;" vertex="1" parent="1">
          <mxGeometry x="50" y="1200" width="280" height="280" as="geometry" />
        </mxCell>
        <mxCell id="wHe4uk9Z3ZLrEEIRu-n8-17" style="edgeStyle=orthogonalEdgeStyle;rounded=0;orthogonalLoop=1;jettySize=auto;html=1;strokeWidth=10;" edge="1" parent="1" source="wHe4uk9Z3ZLrEEIRu-n8-13">
          <mxGeometry relative="1" as="geometry">
            <mxPoint x="550" y="990" as="targetPoint" />
            <Array as="points">
              <mxPoint x="190" y="835" />
              <mxPoint x="550" y="835" />
              <mxPoint x="550" y="990" />
            </Array>
          </mxGeometry>
        </mxCell>
        <mxCell id="wHe4uk9Z3ZLrEEIRu-n8-13" value="&lt;div&gt;&lt;span style=&quot;font-size: 36px&quot;&gt;&lt;br&gt;&lt;/span&gt;&lt;/div&gt;&lt;ul style=&quot;font-size: 36px&quot;&gt;&lt;li&gt;swimmingPoolSize&lt;/li&gt;&lt;li&gt;&lt;font style=&quot;font-size: 36px&quot;&gt;houseArea&lt;/font&gt;&lt;/li&gt;&lt;/ul&gt;" style="whiteSpace=wrap;html=1;aspect=fixed;align=left;" vertex="1" parent="1">
          <mxGeometry x="10" y="320" width="360" height="360" as="geometry" />
        </mxCell>
        <mxCell id="wHe4uk9Z3ZLrEEIRu-n8-18" style="edgeStyle=orthogonalEdgeStyle;rounded=0;orthogonalLoop=1;jettySize=auto;html=1;strokeWidth=10;" edge="1" parent="1" source="wHe4uk9Z3ZLrEEIRu-n8-15">
          <mxGeometry relative="1" as="geometry">
            <mxPoint x="550" y="970" as="targetPoint" />
            <Array as="points">
              <mxPoint x="910" y="830" />
              <mxPoint x="550" y="830" />
            </Array>
          </mxGeometry>
        </mxCell>
        <mxCell id="wHe4uk9Z3ZLrEEIRu-n8-15" value="&lt;ul style=&quot;font-size: 36px&quot;&gt;&lt;li&gt;interiorDesign&lt;/li&gt;&lt;li&gt;furnitureStyle&lt;/li&gt;&lt;/ul&gt;" style="whiteSpace=wrap;html=1;aspect=fixed;align=left;" vertex="1" parent="1">
          <mxGeometry x="731.25" y="320" width="357.5" height="357.5" as="geometry" />
        </mxCell>
        <mxCell id="wHe4uk9Z3ZLrEEIRu-n8-21" value="&lt;ul&gt;&lt;li&gt;&lt;span style=&quot;font-size: 36px&quot;&gt;stories&lt;/span&gt;&lt;/li&gt;&lt;li&gt;&lt;span style=&quot;font-size: 36px&quot;&gt;isDuplex&lt;/span&gt;&lt;/li&gt;&lt;/ul&gt;" style="whiteSpace=wrap;html=1;aspect=fixed;align=left;" vertex="1" parent="1">
          <mxGeometry x="731.25" y="1200" width="280" height="280" as="geometry" />
        </mxCell>
        <mxCell id="wHe4uk9Z3ZLrEEIRu-n8-27" style="edgeStyle=orthogonalEdgeStyle;rounded=0;orthogonalLoop=1;jettySize=auto;html=1;strokeWidth=10;fillColor=#d80073;strokeColor=#A50040;" edge="1" parent="1" source="wHe4uk9Z3ZLrEEIRu-n8-22">
          <mxGeometry relative="1" as="geometry">
            <mxPoint x="550" y="570" as="targetPoint" />
            <Array as="points">
              <mxPoint x="871" y="790" />
              <mxPoint x="550" y="790" />
            </Array>
          </mxGeometry>
        </mxCell>
        <mxCell id="wHe4uk9Z3ZLrEEIRu-n8-22" value="&lt;font style=&quot;font-size: 36px&quot;&gt;Condomium&lt;/font&gt;" style="rounded=1;whiteSpace=wrap;html=1;" vertex="1" parent="1">
          <mxGeometry x="731.25" y="1120" width="280" height="80" as="geometry" />
        </mxCell>
      </root>
    </mxGraphModel>
  </diagram>
</mxfile>
